<svg xmlns="http://www.w3.org/2000/svg" viewBox="0 0 59 60" id="svg9847854158"><path d="M 29.5 59.213 C 21.624 59.213 14.207 56.146 8.643 50.568 C 3.065 45.001 0 37.583 0 29.705 C 0 21.827 3.065 14.408 8.643 8.842 C 14.207 3.263 21.624 0.197 29.5 0.197 C 37.376 0.197 44.792 3.263 50.357 8.842 C 55.934 14.42 58.999 21.827 58.999 29.705 C 58.999 37.583 55.934 45.001 50.357 50.568 C 44.792 56.146 37.376 59.213 29.5 59.213 Z M 29.5 1.966 C 22.095 1.966 15.127 4.855 9.892 10.092 C 4.657 15.328 1.768 22.299 1.768 29.705 C 1.768 37.111 4.657 44.081 9.892 49.318 C 15.127 54.554 22.095 57.444 29.5 57.444 C 36.904 57.444 43.872 54.554 49.107 49.318 C 54.342 44.081 57.231 37.111 57.231 29.705 C 57.231 22.299 54.342 15.328 49.107 10.092 C 43.872 4.855 36.904 1.966 29.5 1.966 Z" fill="currentColor"/><path d="M 35.533 16.917 C 35.414 16.806 35.228 16.813 35.117 16.933 L 32.728 19.513 L 32.564 19.362 L 34.954 16.782 C 35.065 16.663 35.058 16.477 34.939 16.366 C 34.82 16.255 34.634 16.262 34.522 16.381 L 32.133 18.962 L 31.97 18.811 L 34.36 16.23 C 34.47 16.111 34.463 15.925 34.344 15.814 C 34.226 15.704 34.039 15.711 33.928 15.831 L 31.538 18.411 L 31.375 18.259 L 33.765 15.68 C 33.876 15.56 33.869 15.374 33.75 15.263 C 33.63 15.153 33.444 15.16 33.334 15.279 L 30.944 17.859 L 30.943 17.859 L 30.868 17.936 C 30.802 18.009 30.742 18.081 30.688 18.155 L 30.686 18.157 C 30.484 18.432 30.368 18.718 30.369 19.051 C 30.37 19.403 30.493 19.734 30.717 20.007 C 30.567 20.167 29.894 20.823 29.084 21.61 C 28.115 20.58 27.259 19.666 27.087 19.465 C 27.337 19.188 27.485 18.841 27.503 18.47 C 27.52 18.115 27.411 17.807 27.211 17.507 L 27.212 17.507 L 27.208 17.503 C 27.155 17.423 27.095 17.343 27.029 17.263 L 26.954 17.178 L 26.952 17.179 L 26.659 16.873 C 25.045 15.462 24.242 15.34 23.772 15.743 C 23.222 16.214 23.035 17.034 24.27 18.926 L 24.541 19.288 L 24.542 19.289 L 24.571 19.324 C 24.902 19.725 25.22 19.952 25.678 20.01 C 26.027 20.053 26.371 19.978 26.676 19.8 C 26.847 20.009 27.627 21.031 28.498 22.178 C 27.3 23.338 26.005 24.588 25.669 24.922 C 25.433 25.148 25.303 25.301 25.303 25.301 C 25.074 25.548 25.09 25.935 25.339 26.166 C 25.588 26.397 25.976 26.383 26.205 26.137 C 26.205 26.137 26.367 25.965 26.509 25.798 L 26.51 25.799 C 26.719 25.558 27.886 24.158 28.994 22.83 C 30.031 24.199 31.062 25.56 31.259 25.807 L 31.259 25.806 C 31.402 25.99 31.565 26.18 31.565 26.18 C 31.795 26.454 32.205 26.487 32.48 26.254 C 32.756 26.021 32.792 25.611 32.561 25.339 C 32.561 25.339 32.431 25.17 32.192 24.92 C 31.875 24.575 30.714 23.343 29.576 22.134 C 30.318 21.248 30.94 20.508 31.09 20.342 C 31.369 20.523 31.69 20.608 32.02 20.582 C 32.454 20.548 32.763 20.349 33.092 19.986 L 33.122 19.953 L 33.123 19.952 L 35.549 17.333 C 35.659 17.213 35.653 17.027 35.533 16.917 Z" fill="currentColor"/><path d="M 20.729 29.985 C 21.327 29.985 21.852 30.134 22.303 30.431 L 21.922 31.224 C 21.713 31.101 21.488 31.001 21.248 30.923 C 21.009 30.845 20.806 30.806 20.643 30.806 C 20.349 30.806 20.203 30.904 20.203 31.098 C 20.203 31.224 20.274 31.324 20.418 31.4 C 20.563 31.476 20.739 31.541 20.947 31.597 C 21.156 31.652 21.364 31.719 21.571 31.797 C 21.778 31.875 21.953 32.002 22.097 32.178 C 22.243 32.353 22.316 32.573 22.316 32.839 C 22.316 33.223 22.165 33.522 21.863 33.738 C 21.564 33.953 21.181 34.061 20.716 34.061 C 20.386 34.061 20.059 34.004 19.735 33.891 C 19.411 33.777 19.13 33.62 18.893 33.421 L 19.286 32.639 C 19.487 32.814 19.724 32.958 19.997 33.07 C 20.271 33.183 20.515 33.239 20.729 33.239 C 20.892 33.239 21.019 33.21 21.11 33.15 C 21.202 33.091 21.248 33.005 21.248 32.892 C 21.248 32.781 21.196 32.689 21.092 32.615 C 20.987 32.539 20.856 32.484 20.701 32.449 C 20.545 32.412 20.376 32.364 20.194 32.304 C 20.011 32.243 19.841 32.176 19.683 32.104 C 19.527 32.03 19.397 31.915 19.293 31.757 C 19.188 31.599 19.136 31.41 19.136 31.19 C 19.136 30.824 19.281 30.531 19.572 30.314 C 19.863 30.095 20.249 29.985 20.729 29.985 Z" fill="currentColor"/><path d="M 26.863 30.031 L 26.863 32.347 C 26.863 32.876 26.699 33.297 26.371 33.608 C 26.045 33.918 25.602 34.073 25.043 34.073 C 24.478 34.073 24.031 33.918 23.699 33.608 C 23.367 33.297 23.201 32.876 23.201 32.347 L 23.201 30.031 L 24.215 30.031 L 24.215 32.347 C 24.215 32.614 24.292 32.826 24.446 32.984 C 24.6 33.142 24.8 33.221 25.049 33.221 C 25.293 33.221 25.487 33.143 25.633 32.987 C 25.781 32.832 25.855 32.618 25.855 32.347 L 25.855 30.031 Z" fill="currentColor"/><path d="M 27.994 30.031 L 29.735 30.031 C 30.245 30.031 30.641 30.152 30.922 30.394 C 31.203 30.636 31.343 30.98 31.343 31.424 C 31.343 31.892 31.203 32.255 30.922 32.513 C 30.641 32.772 30.245 32.901 29.735 32.901 L 29.009 32.901 L 29.009 34.027 L 27.994 34.027 Z M 29.009 30.831 L 29.009 32.104 L 29.683 32.104 C 29.908 32.104 30.081 32.049 30.202 31.938 C 30.325 31.827 30.387 31.667 30.387 31.458 C 30.387 31.254 30.325 31.097 30.202 30.99 C 30.081 30.884 29.908 30.831 29.683 30.831 Z" fill="currentColor"/><path d="M 35.401 30.831 L 33.288 30.831 L 33.288 31.624 L 35.195 31.624 L 35.195 32.421 L 33.288 32.421 L 33.288 33.227 L 35.462 33.227 L 35.462 34.027 L 32.273 34.027 L 32.273 30.031 L 35.401 30.031 Z" fill="currentColor"/><path d="M 38.928 34.027 L 38.334 32.901 L 37.535 32.901 L 37.535 34.027 L 36.52 34.027 L 36.52 30.031 L 38.306 30.031 C 38.835 30.031 39.244 30.152 39.534 30.394 C 39.823 30.636 39.967 30.98 39.967 31.424 C 39.967 32.04 39.725 32.467 39.241 32.707 L 40.081 34.027 Z M 37.535 32.104 L 38.306 32.104 C 38.526 32.104 38.696 32.049 38.817 31.938 C 38.94 31.827 39.002 31.667 39.002 31.458 C 39.002 31.254 38.94 31.097 38.817 30.99 C 38.696 30.884 38.526 30.831 38.306 30.831 L 37.535 30.831 Z" fill="currentColor"/><path d="M 23.781 37.476 L 21.834 37.476 L 21.834 38.399 L 23.627 38.399 L 23.627 39.199 L 21.834 39.199 L 21.834 40.672 L 20.819 40.672 L 20.819 36.676 L 23.781 36.676 Z" fill="currentColor"/><path d="M 26.559 36.642 C 27.18 36.642 27.695 36.835 28.106 37.221 C 28.518 37.607 28.724 38.09 28.724 38.669 C 28.724 39.252 28.516 39.739 28.102 40.131 C 27.69 40.523 27.175 40.718 26.559 40.718 C 25.941 40.718 25.428 40.524 25.018 40.134 C 24.607 39.742 24.403 39.254 24.403 38.669 C 24.403 38.087 24.607 37.604 25.018 37.221 C 25.428 36.835 25.941 36.642 26.559 36.642 Z M 26.571 37.491 C 26.259 37.491 25.993 37.605 25.771 37.833 C 25.55 38.059 25.439 38.34 25.439 38.676 C 25.439 39.01 25.55 39.292 25.771 39.522 C 25.994 39.751 26.26 39.866 26.568 39.866 C 26.877 39.866 27.14 39.751 27.355 39.522 C 27.57 39.292 27.678 39.01 27.678 38.676 C 27.678 38.34 27.57 38.059 27.355 37.833 C 27.14 37.605 26.878 37.491 26.571 37.491 Z" fill="currentColor"/><path d="M 31.552 36.642 C 32.173 36.642 32.688 36.835 33.099 37.221 C 33.511 37.607 33.717 38.09 33.717 38.669 C 33.717 39.252 33.51 39.739 33.096 40.131 C 32.684 40.523 32.169 40.718 31.552 40.718 C 30.935 40.718 30.421 40.524 30.011 40.134 C 29.601 39.742 29.396 39.254 29.396 38.669 C 29.396 38.087 29.601 37.604 30.011 37.221 C 30.421 36.835 30.935 36.642 31.552 36.642 Z M 31.564 37.491 C 31.252 37.491 30.986 37.605 30.765 37.833 C 30.543 38.059 30.433 38.34 30.433 38.676 C 30.433 39.01 30.543 39.292 30.765 39.522 C 30.988 39.751 31.254 39.866 31.561 39.866 C 31.87 39.866 32.133 39.751 32.349 39.522 C 32.564 39.292 32.672 39.01 32.672 38.676 C 32.672 38.34 32.564 38.059 32.349 37.833 C 32.133 37.605 31.872 37.491 31.564 37.491 Z" fill="currentColor"/><path d="M 34.651 36.676 L 36.37 36.676 C 36.998 36.676 37.508 36.861 37.902 37.23 C 38.295 37.599 38.492 38.081 38.492 38.673 C 38.492 39.263 38.292 39.745 37.892 40.116 C 37.493 40.487 36.971 40.672 36.33 40.672 L 34.651 40.672 Z M 35.666 37.485 L 35.666 39.86 L 36.392 39.86 C 36.703 39.86 36.958 39.752 37.157 39.534 C 37.358 39.315 37.459 39.031 37.459 38.682 C 37.459 38.331 37.354 38.044 37.145 37.821 C 36.936 37.598 36.669 37.485 36.345 37.485 Z" fill="currentColor"/><path d="M 24.164 44.09 C 24.379 44.09 24.571 44.147 24.742 44.26 L 24.628 44.506 C 24.46 44.403 24.297 44.352 24.142 44.352 C 24.06 44.352 23.995 44.367 23.945 44.398 C 23.898 44.427 23.875 44.469 23.875 44.524 C 23.875 44.58 23.896 44.627 23.939 44.666 C 23.984 44.703 24.039 44.73 24.105 44.749 C 24.171 44.767 24.242 44.791 24.32 44.819 C 24.398 44.846 24.47 44.875 24.536 44.906 C 24.601 44.936 24.656 44.985 24.699 45.05 C 24.742 45.116 24.763 45.195 24.763 45.287 C 24.763 45.433 24.705 45.548 24.588 45.635 C 24.473 45.721 24.324 45.764 24.142 45.764 C 24.014 45.764 23.891 45.741 23.773 45.693 C 23.656 45.646 23.553 45.582 23.466 45.502 L 23.586 45.259 C 23.669 45.338 23.761 45.398 23.859 45.441 C 23.959 45.482 24.054 45.502 24.145 45.502 C 24.244 45.502 24.319 45.485 24.373 45.45 C 24.428 45.413 24.456 45.364 24.456 45.302 C 24.456 45.246 24.433 45.197 24.388 45.158 C 24.345 45.119 24.29 45.092 24.222 45.075 C 24.156 45.056 24.084 45.034 24.007 45.007 C 23.931 44.981 23.859 44.953 23.792 44.924 C 23.725 44.896 23.67 44.849 23.625 44.786 C 23.582 44.72 23.561 44.641 23.561 44.549 C 23.561 44.41 23.616 44.299 23.727 44.216 C 23.838 44.133 23.983 44.09 24.164 44.09 Z" fill="currentColor"/><path d="M 26.436 44.353 L 25.532 44.353 L 25.532 44.799 L 26.341 44.799 L 26.341 45.048 L 25.532 45.048 L 25.532 45.506 L 26.464 45.506 L 26.464 45.755 L 25.256 45.755 L 25.256 44.1 L 26.436 44.1 Z" fill="currentColor"/><path d="M 27.247 45.755 L 26.971 45.755 L 26.971 44.1 L 27.247 44.1 Z" fill="currentColor"/><path d="M 28.978 44.353 L 28.452 44.353 L 28.452 45.755 L 28.175 45.755 L 28.175 44.353 L 27.652 44.353 L 27.652 44.1 L 28.978 44.1 Z" fill="currentColor"/><path d="M 30.573 45.755 L 30.293 45.755 L 30.293 44.35 L 29.971 44.35 L 29.971 44.1 L 30.573 44.1 Z" fill="currentColor"/><path d="M 31.658 45.767 C 31.478 45.767 31.314 45.725 31.166 45.641 L 31.274 45.432 C 31.38 45.502 31.502 45.536 31.64 45.536 C 31.795 45.536 31.912 45.483 31.99 45.376 C 32.068 45.268 32.105 45.121 32.101 44.936 C 32.013 45.092 31.862 45.17 31.649 45.17 C 31.483 45.17 31.352 45.123 31.259 45.029 C 31.164 44.932 31.117 44.804 31.117 44.644 C 31.117 44.474 31.169 44.34 31.274 44.241 C 31.38 44.141 31.522 44.09 31.698 44.09 C 31.907 44.09 32.071 44.161 32.19 44.303 C 32.311 44.444 32.372 44.641 32.372 44.893 C 32.372 45.158 32.307 45.37 32.178 45.53 C 32.049 45.688 31.875 45.767 31.658 45.767 Z M 31.701 44.952 C 31.81 44.952 31.896 44.922 31.96 44.862 C 32.025 44.801 32.057 44.726 32.055 44.638 C 32.057 44.558 32.028 44.487 31.969 44.426 C 31.909 44.363 31.825 44.33 31.714 44.33 C 31.611 44.33 31.529 44.358 31.468 44.413 C 31.408 44.469 31.379 44.547 31.379 44.647 C 31.379 44.742 31.407 44.816 31.465 44.872 C 31.522 44.926 31.601 44.952 31.701 44.952 Z" fill="currentColor"/><path d="M 33.276 45.767 C 33.095 45.767 32.931 45.725 32.783 45.641 L 32.891 45.432 C 32.997 45.502 33.119 45.536 33.257 45.536 C 33.412 45.536 33.529 45.483 33.608 45.376 C 33.685 45.268 33.722 45.121 33.718 44.936 C 33.63 45.092 33.479 45.17 33.266 45.17 C 33.1 45.17 32.969 45.123 32.876 45.029 C 32.781 44.932 32.734 44.804 32.734 44.644 C 32.734 44.474 32.786 44.34 32.891 44.241 C 32.997 44.141 33.139 44.09 33.316 44.09 C 33.525 44.09 33.688 44.161 33.808 44.303 C 33.928 44.444 33.989 44.641 33.989 44.893 C 33.989 45.158 33.924 45.37 33.795 45.53 C 33.666 45.688 33.492 45.767 33.276 45.767 Z M 33.319 44.952 C 33.427 44.952 33.513 44.922 33.577 44.862 C 33.642 44.801 33.674 44.726 33.672 44.638 C 33.674 44.558 33.645 44.487 33.586 44.426 C 33.526 44.363 33.442 44.33 33.331 44.33 C 33.228 44.33 33.146 44.358 33.085 44.413 C 33.025 44.469 32.996 44.547 32.996 44.647 C 32.996 44.742 33.024 44.816 33.082 44.872 C 33.139 44.926 33.218 44.952 33.319 44.952 Z" fill="currentColor"/><path d="M 34.933 44.09 C 35.091 44.09 35.217 44.129 35.314 44.204 C 35.41 44.278 35.459 44.379 35.459 44.506 C 35.459 44.649 35.358 44.83 35.158 45.047 L 34.727 45.505 L 35.536 45.505 L 35.536 45.755 L 34.361 45.755 L 34.361 45.552 L 34.97 44.896 C 35.103 44.759 35.17 44.643 35.17 44.546 C 35.17 44.48 35.145 44.429 35.096 44.392 C 35.047 44.353 34.979 44.333 34.893 44.333 C 34.743 44.333 34.592 44.403 34.441 44.539 L 34.33 44.324 C 34.525 44.169 34.725 44.09 34.933 44.09 Z" fill="currentColor"/></svg>