<svg xmlns="http://www.w3.org/2000/svg" viewBox="0 0 70 60" id="svg11135453979"><path d="M 35.03 1.078 C 26.683 1.078 19.892 7.852 19.892 16.18 C 19.892 24.507 26.683 31.28 35.03 31.28 C 43.377 31.28 50.166 24.507 50.166 16.18 C 50.166 7.852 43.377 1.078 35.03 1.078 Z M 35.03 32.162 C 26.197 32.162 19.01 24.992 19.01 16.18 C 19.01 7.368 26.197 0.197 35.03 0.197 C 43.863 0.197 51.05 7.368 51.05 16.18 C 51.05 24.992 43.863 32.162 35.03 32.162 Z" fill="currentColor"/><path d="M 35.03 3.021 C 27.757 3.021 21.841 8.924 21.841 16.18 C 21.841 23.435 27.757 29.338 35.03 29.338 C 42.302 29.338 48.219 23.435 48.219 16.18 C 48.219 8.924 42.302 3.021 35.03 3.021 Z M 35.03 30.218 C 27.27 30.218 20.957 23.921 20.957 16.18 C 20.957 8.438 27.27 2.139 35.03 2.139 C 42.79 2.139 49.102 8.438 49.102 16.18 C 49.102 23.921 42.79 30.218 35.03 30.218 Z" fill="currentColor"/><path d="M 35.03 4.964 C 28.831 4.964 23.788 9.995 23.788 16.18 C 23.788 22.365 28.831 27.396 35.03 27.396 C 41.23 27.396 46.272 22.365 46.272 16.18 C 46.272 9.995 41.23 4.964 35.03 4.964 Z M 35.03 28.276 C 28.345 28.276 22.905 22.85 22.905 16.18 C 22.905 9.51 28.345 4.083 35.03 4.083 C 41.715 4.083 47.155 9.51 47.155 16.18 C 47.155 22.85 41.715 28.276 35.03 28.276 Z" fill="currentColor"/><path d="M 35.03 6.906 C 29.905 6.906 25.735 11.067 25.735 16.18 C 25.735 21.293 29.905 25.453 35.03 25.453 C 40.155 25.453 44.325 21.293 44.325 16.18 C 44.325 11.067 40.155 6.906 35.03 6.906 Z M 35.03 26.334 C 29.418 26.334 24.852 21.779 24.852 16.18 C 24.852 10.581 29.418 6.026 35.03 6.026 C 40.642 6.026 45.208 10.581 45.208 16.18 C 45.208 21.779 40.642 26.334 35.03 26.334 Z" fill="currentColor"/><path d="M 35.03 8.85 C 30.978 8.85 27.683 12.137 27.683 16.18 C 27.683 20.222 30.978 23.509 35.03 23.509 C 39.082 23.509 42.377 20.222 42.377 16.18 C 42.377 12.137 39.082 8.85 35.03 8.85 Z M 35.03 24.391 C 30.492 24.391 26.799 20.707 26.799 16.18 C 26.799 11.651 30.492 7.968 35.03 7.968 C 39.568 7.968 43.261 11.651 43.261 16.18 C 43.261 20.707 39.568 24.391 35.03 24.391 Z" fill="currentColor"/><path d="M 35.03 10.792 C 32.053 10.792 29.63 13.209 29.63 16.18 C 29.63 19.15 32.053 21.567 35.03 21.567 C 38.008 21.567 40.43 19.15 40.43 16.18 C 40.43 13.209 38.008 10.792 35.03 10.792 Z M 35.03 22.448 C 31.565 22.448 28.748 19.636 28.748 16.18 C 28.748 12.723 31.565 9.91 35.03 9.91 C 38.495 9.91 41.313 12.723 41.313 16.18 C 41.313 19.636 38.495 22.448 35.03 22.448 Z" fill="currentColor"/><path d="M 35.03 12.735 C 33.126 12.735 31.577 14.28 31.577 16.18 C 31.577 18.078 33.126 19.625 35.03 19.625 C 36.935 19.625 38.483 18.078 38.483 16.18 C 38.483 14.28 36.935 12.735 35.03 12.735 Z M 35.03 20.506 C 32.64 20.506 30.694 18.565 30.694 16.18 C 30.694 13.795 32.64 11.854 35.03 11.854 C 37.421 11.854 39.366 13.795 39.366 16.18 C 39.366 18.565 37.421 20.506 35.03 20.506 Z" fill="currentColor"/><path d="M 35.03 14.677 C 34.2 14.677 33.524 15.352 33.524 16.18 C 33.524 17.008 34.2 17.681 35.03 17.681 C 35.86 17.681 36.536 17.008 36.536 16.18 C 36.536 15.352 35.86 14.677 35.03 14.677 Z M 35.03 18.563 C 33.713 18.563 32.641 17.494 32.641 16.18 C 32.641 14.865 33.713 13.796 35.03 13.796 C 36.348 13.796 37.419 14.865 37.419 16.18 C 37.419 17.494 36.348 18.563 35.03 18.563 Z" fill="currentColor"/><path d="M 5.341 48.502 C 3.784 48.502 2.637 48.184 1.904 47.544 C 1.251 46.98 0.926 46.209 0.926 45.231 C 0.926 44.254 1.251 43.481 1.904 42.912 C 2.637 42.278 3.784 41.959 5.341 41.959 C 6.255 41.959 7.01 42.065 7.607 42.275 C 8.204 42.482 8.667 42.766 8.995 43.128 C 9.326 43.49 9.547 43.905 9.657 44.372 L 6.875 44.372 C 6.597 43.886 6.086 43.642 5.341 43.642 C 4.7 43.642 4.23 43.826 3.93 44.191 C 3.691 44.483 3.573 44.831 3.573 45.231 C 3.573 45.632 3.691 45.978 3.93 46.271 C 4.23 46.637 4.7 46.82 5.341 46.82 C 6.086 46.82 6.597 46.574 6.875 46.084 L 9.657 46.084 C 9.547 46.555 9.326 46.971 8.995 47.334 C 8.667 47.696 8.204 47.982 7.607 48.192 C 7.01 48.398 6.255 48.502 5.341 48.502 Z" fill="currentColor"/><path d="M 19.308 48.368 L 16.814 48.368 C 16.696 48.209 16.614 48.006 16.568 47.76 C 16.528 47.573 16.468 47.389 16.386 47.205 C 16.304 47.023 16.161 46.871 15.959 46.75 C 15.76 46.63 15.462 46.563 15.069 46.551 L 13.353 46.551 L 13.353 48.368 L 10.706 48.368 L 10.706 42.082 L 15.004 42.082 C 16.035 42.082 16.863 42.158 17.493 42.31 C 18.125 42.462 18.585 42.704 18.875 43.034 C 19.163 43.362 19.308 43.791 19.308 44.32 C 19.308 44.761 19.208 45.132 19.009 45.435 C 18.81 45.736 18.494 45.973 18.061 46.148 C 18.478 46.32 18.749 46.526 18.875 46.767 C 18.999 47.01 19.075 47.274 19.103 47.562 C 19.134 47.819 19.202 48.088 19.308 48.368 Z M 13.353 45.003 L 14.864 44.997 C 15.285 44.997 15.616 44.98 15.859 44.945 C 16.101 44.907 16.278 44.854 16.392 44.787 C 16.509 44.721 16.582 44.65 16.614 44.571 C 16.65 44.489 16.667 44.406 16.667 44.32 C 16.667 44.235 16.65 44.15 16.614 44.068 C 16.582 43.987 16.509 43.914 16.392 43.847 C 16.278 43.781 16.101 43.73 15.859 43.695 C 15.616 43.657 15.285 43.636 14.864 43.636 L 13.353 43.636 Z" fill="currentColor"/><path d="M 27.946 48.368 L 20.358 48.368 L 20.358 42.082 L 27.601 42.082 L 27.601 43.636 L 23.004 43.636 L 23.004 44.623 L 26.886 44.623 L 26.886 45.833 L 23.004 45.833 L 23.004 46.814 L 27.946 46.814 Z" fill="currentColor"/><path d="M 38.881 48.368 L 36.199 48.368 L 35.607 47.34 L 31.632 47.34 L 31.04 48.368 L 28.359 48.368 L 32.393 42.082 L 34.846 42.082 Z M 34.717 45.78 L 33.622 43.876 L 32.522 45.78 Z" fill="currentColor"/><path d="M 44.313 48.368 L 41.673 48.368 L 41.673 43.636 L 39.202 43.636 L 39.202 42.082 L 46.784 42.082 L 46.784 43.636 L 44.313 43.636 Z" fill="currentColor"/><path d="M 50.389 48.368 L 47.743 48.368 L 47.743 42.082 L 50.389 42.082 Z" fill="currentColor"/><path d="M 57.142 48.368 L 54.683 48.368 L 51.152 42.082 L 53.834 42.082 L 55.912 46.575 L 57.991 42.082 L 60.673 42.082 Z" fill="currentColor"/><path d="M 69.022 48.368 L 61.434 48.368 L 61.434 42.082 L 68.677 42.082 L 68.677 43.636 L 64.08 43.636 L 64.08 44.623 L 67.963 44.623 L 67.963 45.833 L 64.08 45.833 L 64.08 46.814 L 69.022 46.814 Z" fill="currentColor"/><path d="M 14.659 59.213 C 13.807 59.213 13.12 59.121 12.598 58.939 C 12.078 58.756 11.681 58.505 11.409 58.185 C 11.135 57.867 10.952 57.499 10.859 57.081 L 13.669 57.081 C 13.876 57.378 14.205 57.525 14.659 57.525 C 15.111 57.525 15.443 57.378 15.654 57.081 C 15.669 57.05 15.678 57.023 15.678 56.999 C 15.678 56.922 15.572 56.863 15.361 56.824 C 15.154 56.786 14.842 56.757 14.425 56.736 C 13.901 56.713 13.35 56.658 12.773 56.567 C 11.488 56.368 10.847 55.853 10.847 55.019 C 10.847 54.949 10.85 54.876 10.859 54.797 C 10.952 54.381 11.135 54.013 11.409 53.693 C 11.681 53.375 12.078 53.123 12.598 52.939 C 13.12 52.757 13.807 52.665 14.659 52.665 C 15.509 52.665 16.194 52.757 16.714 52.939 C 17.237 53.123 17.635 53.375 17.909 53.693 C 18.181 54.013 18.365 54.381 18.459 54.797 L 15.654 54.797 C 15.443 54.502 15.111 54.353 14.659 54.353 C 14.205 54.353 13.876 54.502 13.669 54.797 C 13.653 54.82 13.646 54.842 13.646 54.861 C 13.646 54.931 13.745 54.984 13.944 55.019 C 14.147 55.054 14.444 55.083 14.834 55.107 C 15.224 55.13 15.64 55.169 16.082 55.223 C 16.522 55.274 16.937 55.364 17.323 55.492 C 17.709 55.621 18.01 55.813 18.225 56.07 C 18.396 56.266 18.482 56.513 18.482 56.812 C 18.482 56.898 18.474 56.988 18.459 57.081 C 18.365 57.499 18.181 57.867 17.909 58.185 C 17.635 58.505 17.237 58.756 16.714 58.939 C 16.194 59.121 15.509 59.213 14.659 59.213 Z" fill="currentColor"/><path d="M 24.2 59.079 L 21.56 59.079 L 21.56 54.347 L 19.089 54.347 L 19.089 52.793 L 26.671 52.793 L 26.671 54.347 L 24.2 54.347 Z" fill="currentColor"/><path d="M 31.361 59.213 C 29.822 59.213 28.741 58.896 28.117 58.261 C 27.59 57.724 27.326 56.951 27.326 55.942 L 27.326 52.793 L 29.967 52.793 L 29.967 55.942 C 29.967 56.379 30.04 56.725 30.19 56.982 C 30.403 57.344 30.794 57.525 31.361 57.525 C 31.93 57.525 32.321 57.344 32.532 56.982 C 32.68 56.718 32.754 56.371 32.754 55.942 L 32.754 52.793 L 35.401 52.793 L 35.401 55.977 C 35.401 56.963 35.139 57.724 34.616 58.261 C 33.984 58.896 32.898 59.213 31.361 59.213 Z" fill="currentColor"/><path d="M 40.71 59.079 L 36.494 59.079 L 36.494 52.793 L 40.71 52.793 C 42.434 52.793 43.674 53.033 44.428 53.512 C 45.037 53.902 45.384 54.432 45.471 55.101 C 45.509 55.39 45.529 55.668 45.529 55.936 C 45.529 56.202 45.509 56.479 45.471 56.772 C 45.435 57.064 45.337 57.347 45.178 57.619 C 45.021 57.892 44.771 58.137 44.428 58.355 C 44.084 58.574 43.611 58.749 43.011 58.88 C 42.414 59.013 41.647 59.079 40.71 59.079 Z M 40.458 57.525 C 41.805 57.525 42.566 57.186 42.742 56.509 C 42.789 56.319 42.812 56.128 42.812 55.936 C 42.812 55.746 42.786 55.557 42.736 55.37 C 42.689 55.18 42.587 55.007 42.432 54.856 C 42.275 54.701 42.039 54.578 41.723 54.487 C 41.41 54.394 40.988 54.347 40.458 54.347 L 39.141 54.347 L 39.141 57.525 Z" fill="currentColor"/><path d="M 49.222 59.079 L 46.576 59.079 L 46.576 52.793 L 49.222 52.793 Z" fill="currentColor"/><path d="M 54.687 59.213 C 53.13 59.213 51.983 58.895 51.25 58.255 C 50.597 57.687 50.272 56.915 50.272 55.936 C 50.272 54.963 50.597 54.192 51.25 53.623 C 51.983 52.985 53.13 52.665 54.687 52.665 C 56.245 52.665 57.389 52.985 58.124 53.623 C 58.775 54.192 59.102 54.963 59.102 55.936 C 59.102 56.915 58.775 57.687 58.124 58.255 C 57.389 58.895 56.245 59.213 54.687 59.213 Z M 54.687 57.525 C 55.322 57.525 55.791 57.344 56.092 56.982 C 56.329 56.687 56.449 56.338 56.449 55.936 C 56.449 55.536 56.329 55.188 56.092 54.896 C 55.791 54.531 55.322 54.347 54.687 54.347 C 54.046 54.347 53.576 54.531 53.276 54.896 C 53.037 55.188 52.919 55.536 52.919 55.936 C 52.919 56.338 53.037 56.687 53.276 56.982 C 53.576 57.344 54.046 57.525 54.687 57.525 Z" fill="currentColor"/></svg>