<svg xmlns="http://www.w3.org/2000/svg" viewBox="0 0 69 60" id="svg11530193546"><path d="M 2.595 59.137 L 0.935 59.137 L 0.935 52.629 L 2.595 52.629 Z" fill="currentColor"/><path d="M 12.06 59.137 L 10.595 59.137 L 7.595 55.135 L 7.595 59.137 L 6.039 59.137 L 6.039 52.629 L 7.504 52.629 L 10.511 56.645 L 10.511 52.629 L 12.06 52.629 Z" fill="currentColor"/><path d="M 26.97 59.137 L 25.505 59.137 L 25.498 54.911 L 23.936 58.489 L 22.854 58.489 L 21.292 54.911 L 21.292 59.137 L 19.806 59.137 L 19.806 52.621 L 21.626 52.621 L 23.391 56.498 L 25.163 52.621 L 26.97 52.621 Z" fill="currentColor"/><path d="M 33.521 52.572 C 34.529 52.572 35.369 52.889 36.039 53.519 C 36.712 54.146 37.051 54.931 37.051 55.872 C 37.051 56.824 36.712 57.619 36.039 58.26 C 35.364 58.897 34.522 59.213 33.514 59.213 C 32.509 59.213 31.672 58.897 31.002 58.26 C 30.333 57.624 29.998 56.829 29.998 55.872 C 29.998 54.925 30.333 54.139 31.002 53.512 C 31.672 52.886 32.511 52.572 33.521 52.572 Z M 33.535 53.958 C 33.027 53.958 32.593 54.144 32.23 54.515 C 31.871 54.882 31.693 55.34 31.693 55.886 C 31.693 56.429 31.874 56.888 32.237 57.264 C 32.6 57.64 33.032 57.828 33.535 57.828 C 34.037 57.828 34.463 57.64 34.811 57.264 C 35.164 56.888 35.342 56.429 35.342 55.886 C 35.342 55.34 35.164 54.882 34.811 54.515 C 34.463 54.144 34.037 53.958 33.535 53.958 Z" fill="currentColor"/><path d="M 45.051 53.958 L 43.084 53.958 L 43.084 59.137 L 41.424 59.137 L 41.424 53.958 L 39.478 53.958 L 39.478 52.621 L 45.051 52.621 Z" fill="currentColor"/><path d="M 49.557 59.137 L 47.897 59.137 L 47.897 52.629 L 49.557 52.629 Z" fill="currentColor"/><path d="M 56.099 52.572 C 57.107 52.572 57.947 52.889 58.617 53.519 C 59.29 54.146 59.629 54.931 59.629 55.872 C 59.629 56.824 59.29 57.619 58.617 58.26 C 57.942 58.897 57.1 59.213 56.092 59.213 C 55.087 59.213 54.25 58.897 53.58 58.26 C 52.911 57.624 52.576 56.829 52.576 55.872 C 52.576 54.925 52.911 54.139 53.58 53.512 C 54.25 52.886 55.089 52.572 56.099 52.572 Z M 56.113 53.958 C 55.605 53.958 55.171 54.144 54.808 54.515 C 54.449 54.882 54.271 55.34 54.271 55.886 C 54.271 56.429 54.452 56.888 54.815 57.264 C 55.178 57.64 55.61 57.828 56.113 57.828 C 56.615 57.828 57.041 57.64 57.389 57.264 C 57.742 56.888 57.919 56.429 57.919 55.886 C 57.919 55.34 57.742 54.882 57.389 54.515 C 57.041 54.144 56.615 53.958 56.113 53.958 Z" fill="currentColor"/><path d="M 68.661 59.137 L 67.196 59.137 L 64.197 55.135 L 64.197 59.137 L 62.641 59.137 L 62.641 52.629 L 64.106 52.629 L 67.113 56.645 L 67.113 52.629 L 68.661 52.629 Z" fill="currentColor"/><path d="M 48.815 41.591 L 14.092 41.591 L 14.092 6.913 L 48.815 6.913 Z M 14.646 41.038 L 48.26 41.038 L 48.26 7.466 L 14.646 7.466 Z" fill="currentColor"/><path d="M 51.954 38.086 L 17.233 38.086 L 17.233 3.408 L 51.954 3.408 Z M 17.786 37.533 L 51.399 37.533 L 51.399 3.961 L 17.786 3.961 Z" fill="currentColor"/><path d="M 55.278 34.877 L 20.557 34.877 L 20.557 0.197 L 55.278 0.197 Z M 21.111 34.324 L 54.725 34.324 L 54.725 0.75 L 21.111 0.75 Z" fill="currentColor"/><path d="M 25.228 22.781 L 32.907 22.781 L 32.907 30.445 L 25.228 30.445 Z" fill="currentColor"/></svg>