<svg xmlns="http://www.w3.org/2000/svg" viewBox="0 0 73 60" id="svg10440407616"><path d="M 3.865 47.609 L 0.589 59.053 L 1.723 59.053 L 2.538 56.149 L 6.689 56.149 L 7.504 59.053 L 8.641 59.053 L 5.365 47.609 Z M 4.607 48.759 L 6.414 55.204 L 2.8 55.204 Z" fill="var(--token-efbc6c56-80fe-4475-9b37-9684d6e92632, rgb(25, 25, 25)) /* {&quot;name&quot;:&quot;icon/default&quot;} */"/><path d="M 13.52 47.436 L 12.5 47.436 L 12.5 56.876 L 12.414 59.053 L 13.258 59.053 L 13.403 58.007 C 13.811 58.675 14.525 59.213 15.703 59.213 C 17.816 59.213 18.66 57.513 18.66 55.38 L 18.66 55.03 C 18.66 52.895 17.816 51.197 15.703 51.197 C 14.626 51.197 13.927 51.663 13.52 52.243 Z M 13.52 53.301 C 13.826 52.794 14.423 52.111 15.472 52.111 C 16.928 52.111 17.611 53.244 17.611 55.03 L 17.611 55.38 C 17.611 57.166 16.928 58.297 15.472 58.297 C 14.423 58.297 13.826 57.616 13.52 57.106 Z" fill="var(--token-efbc6c56-80fe-4475-9b37-9684d6e92632, rgb(25, 25, 25)) /* {&quot;name&quot;:&quot;icon/default&quot;} */"/><path d="M 25.635 58.357 C 24.106 58.357 23.683 57.544 23.683 56.7 L 22.665 56.7 L 22.665 56.76 C 22.665 57.935 23.452 59.213 25.635 59.213 C 27.543 59.213 28.607 58.284 28.607 56.949 L 28.607 56.876 C 28.607 55.465 27.777 54.914 25.84 54.754 C 24.166 54.624 23.787 54.189 23.787 53.389 C 23.787 52.533 24.469 52.054 25.635 52.054 C 27.078 52.054 27.514 52.737 27.514 53.84 L 28.519 53.84 L 28.519 53.783 C 28.519 52.271 27.748 51.197 25.635 51.197 C 23.831 51.197 22.766 52.054 22.766 53.389 L 22.766 53.477 C 22.766 54.624 23.363 55.349 25.445 55.525 C 26.946 55.654 27.559 55.903 27.559 56.949 C 27.559 57.805 26.889 58.357 25.635 58.357 Z" fill="var(--token-efbc6c56-80fe-4475-9b37-9684d6e92632, rgb(25, 25, 25)) /* {&quot;name&quot;:&quot;icon/default&quot;} */"/><path d="M 34.606 51.357 L 34.606 49.178 L 33.586 49.178 L 33.586 51.357 L 32.363 51.357 L 32.363 52.271 L 33.586 52.271 L 33.586 56.917 C 33.586 58.587 34.534 59.213 35.845 59.213 C 36.455 59.213 36.805 59.097 36.922 59.053 L 36.922 58.168 C 36.805 58.224 36.411 58.297 36.091 58.297 C 35.115 58.297 34.606 58.007 34.606 56.788 L 34.606 52.271 L 37.067 52.271 L 37.067 51.357 Z" fill="var(--token-efbc6c56-80fe-4475-9b37-9684d6e92632, rgb(25, 25, 25)) /* {&quot;name&quot;:&quot;icon/default&quot;} */"/><path d="M 44.231 51.197 C 43.198 51.197 42.484 51.735 42.077 52.372 L 41.931 51.358 L 41.088 51.358 L 41.173 53.534 L 41.173 59.053 L 42.193 59.053 L 42.193 53.345 C 42.513 52.838 43.081 52.183 44.247 52.183 L 44.449 52.183 L 44.449 51.213 C 44.436 51.213 44.335 51.197 44.231 51.197 Z" fill="var(--token-efbc6c56-80fe-4475-9b37-9684d6e92632, rgb(25, 25, 25)) /* {&quot;name&quot;:&quot;icon/default&quot;} */"/><path d="M 53.307 59.053 L 54.15 59.053 L 54.062 56.876 L 54.062 54.057 C 54.062 52.359 53.408 51.197 51.266 51.197 C 48.995 51.197 48.486 52.605 48.486 53.767 L 48.486 53.897 L 49.462 53.897 C 49.462 52.895 49.797 52.054 51.253 52.054 C 52.621 52.054 53.044 52.737 53.044 54.057 L 53.044 54.262 L 50.713 54.624 C 49.462 54.813 48.192 55.292 48.192 56.961 L 48.192 57.106 C 48.192 58.341 49.01 59.213 50.422 59.213 C 51.762 59.213 52.634 58.647 53.146 57.979 Z M 50.685 58.328 C 49.649 58.328 49.213 57.702 49.213 57.021 L 49.213 56.889 C 49.213 56.019 49.81 55.538 50.801 55.364 L 53.044 55.002 L 53.044 57.106 C 52.767 57.557 52.112 58.328 50.685 58.328 Z" fill="var(--token-efbc6c56-80fe-4475-9b37-9684d6e92632, rgb(25, 25, 25)) /* {&quot;name&quot;:&quot;icon/default&quot;} */"/><path d="M 59.217 55.38 L 59.217 55.031 C 59.217 53.273 59.886 52.111 61.415 52.111 C 62.815 52.111 63.383 52.999 63.383 54.174 L 64.359 54.174 L 64.359 53.884 C 64.359 52.634 63.529 51.197 61.402 51.197 C 59.144 51.197 58.183 52.895 58.183 55.031 L 58.183 55.38 C 58.183 57.513 59.144 59.213 61.402 59.213 C 63.529 59.213 64.359 57.834 64.359 56.615 L 64.359 56.382 L 63.383 56.382 C 63.383 57.383 62.859 58.297 61.415 58.297 C 59.886 58.297 59.217 57.135 59.217 55.38 Z" fill="var(--token-efbc6c56-80fe-4475-9b37-9684d6e92632, rgb(25, 25, 25)) /* {&quot;name&quot;:&quot;icon/default&quot;} */"/><path d="M 70.241 51.357 L 70.241 49.178 L 69.221 49.178 L 69.221 51.357 L 67.998 51.357 L 67.998 52.271 L 69.221 52.271 L 69.221 56.917 C 69.221 58.587 70.168 59.213 71.479 59.213 C 72.09 59.213 72.44 59.097 72.557 59.053 L 72.557 58.168 C 72.44 58.224 72.045 58.297 71.726 58.297 C 70.75 58.297 70.241 58.007 70.241 56.788 L 70.241 52.271 L 72.702 52.271 L 72.702 51.357 Z" fill="var(--token-efbc6c56-80fe-4475-9b37-9684d6e92632, rgb(25, 25, 25)) /* {&quot;name&quot;:&quot;icon/default&quot;} */"/><path d="M 52.581 32.496 L 53.572 32.496 L 53.572 33.482 L 52.581 33.482 Z" fill="var(--token-efbc6c56-80fe-4475-9b37-9684d6e92632, rgb(25, 25, 25)) /* {&quot;name&quot;:&quot;icon/default&quot;} */"/><path d="M 20.19 1.196 L 21.192 1.196 L 21.192 32.496 L 20.19 32.496 Z" fill="var(--token-efbc6c56-80fe-4475-9b37-9684d6e92632, rgb(25, 25, 25)) /* {&quot;name&quot;:&quot;icon/default&quot;} */"/><path d="M 20.19 32.496 L 21.192 32.496 L 21.192 33.482 L 20.19 33.482 Z" fill="var(--token-efbc6c56-80fe-4475-9b37-9684d6e92632, rgb(25, 25, 25)) /* {&quot;name&quot;:&quot;icon/default&quot;} */"/><path d="M 52.581 1.196 L 53.572 1.196 L 53.572 32.496 L 52.581 32.496 Z" fill="var(--token-efbc6c56-80fe-4475-9b37-9684d6e92632, rgb(25, 25, 25)) /* {&quot;name&quot;:&quot;icon/default&quot;} */"/><path d="M 21.192 32.496 L 52.581 32.496 L 52.581 33.482 L 21.192 33.482 Z" fill="var(--token-efbc6c56-80fe-4475-9b37-9684d6e92632, rgb(25, 25, 25)) /* {&quot;name&quot;:&quot;icon/default&quot;} */"/><path d="M 52.581 0.197 L 53.572 0.197 L 53.572 1.196 L 52.581 1.196 Z" fill="var(--token-efbc6c56-80fe-4475-9b37-9684d6e92632, rgb(25, 25, 25)) /* {&quot;name&quot;:&quot;icon/default&quot;} */"/><path d="M 20.19 0.197 L 21.192 0.197 L 21.192 1.196 L 20.19 1.196 Z" fill="var(--token-efbc6c56-80fe-4475-9b37-9684d6e92632, rgb(25, 25, 25)) /* {&quot;name&quot;:&quot;icon/default&quot;} */"/><path d="M 21.192 0.197 L 52.581 0.197 L 52.581 1.196 L 21.192 1.196 Z" fill="var(--token-efbc6c56-80fe-4475-9b37-9684d6e92632, rgb(25, 25, 25)) /* {&quot;name&quot;:&quot;icon/default&quot;} */"/><path d="M 24.629 4.626 L 48.902 4.626 L 48.902 28.825 L 24.629 28.825 Z" fill="var(--token-efbc6c56-80fe-4475-9b37-9684d6e92632, rgb(25, 25, 25)) /* {&quot;name&quot;:&quot;icon/default&quot;} */"/><path d="M 31.74 15.585 L 41.924 15.585 L 41.924 17.843 L 31.74 17.843 Z" fill="var(--token-f82457c5-8438-48a1-bcce-dde3448a0d3a, rgb(253, 251, 245)) /* {&quot;name&quot;:&quot;icon/inverse&quot;} */"/></svg>