<svg xmlns="http://www.w3.org/2000/svg" viewBox="0 0 103 30" id="svg12331806652"><path d="M 0.582 0.182 L 102.96 0.182 L 102.96 29.273 L 0.582 29.273 Z M 1.971 1.567 L 1.971 27.888 L 101.571 27.888 L 101.571 1.567 Z" fill="var(--token-efbc6c56-80fe-4475-9b37-9684d6e92632, rgb(25, 25, 25)) /* {&quot;name&quot;:&quot;icon/default&quot;} */"/><path d="M 4.006 3.482 L 51.75 3.482 L 51.75 25.993 L 4.006 25.993 Z" fill="var(--token-efbc6c56-80fe-4475-9b37-9684d6e92632, rgb(25, 25, 25)) /* {&quot;name&quot;:&quot;icon/default&quot;} */"/><path d="M 10.052 18.537 L 10.941 18.537 L 13.954 10.972 L 12.945 10.972 L 11.678 14.16 L 10.496 17.165 L 9.304 14.16 L 8.047 10.972 L 7.029 10.972 Z" fill="var(--token-f82457c5-8438-48a1-bcce-dde3448a0d3a, rgb(253, 251, 245)) /* {&quot;name&quot;:&quot;icon/inverse&quot;} */"/><path d="M 16.063 18.537 L 17.018 18.537 L 17.018 10.972 L 16.063 10.972 Z" fill="var(--token-f82457c5-8438-48a1-bcce-dde3448a0d3a, rgb(253, 251, 245)) /* {&quot;name&quot;:&quot;icon/inverse&quot;} */"/><path d="M 22.577 18.677 C 24.234 18.677 25.308 17.867 25.308 16.548 C 25.308 15.435 24.56 14.766 22.62 14.289 C 21.146 13.933 20.658 13.544 20.658 12.917 C 20.658 12.192 21.309 11.738 22.393 11.738 C 23.508 11.738 24.201 12.301 24.224 13.208 L 25.166 13.208 C 25.155 11.738 24.093 10.831 22.393 10.831 C 20.733 10.831 19.683 11.642 19.683 12.917 C 19.683 14.085 20.518 14.733 22.381 15.176 C 23.746 15.499 24.32 15.878 24.32 16.581 C 24.32 17.327 23.65 17.769 22.577 17.769 C 21.395 17.769 20.572 17.186 20.55 16.213 L 19.596 16.213 C 19.608 17.694 20.767 18.677 22.577 18.677 Z" fill="var(--token-f82457c5-8438-48a1-bcce-dde3448a0d3a, rgb(253, 251, 245)) /* {&quot;name&quot;:&quot;icon/inverse&quot;} */"/><path d="M 27.883 18.537 L 28.837 18.537 L 28.837 10.972 L 27.883 10.972 Z" fill="var(--token-f82457c5-8438-48a1-bcce-dde3448a0d3a, rgb(253, 251, 245)) /* {&quot;name&quot;:&quot;icon/inverse&quot;} */"/><path d="M 35.317 18.677 C 37.625 18.677 39.25 17.056 39.25 14.754 C 39.25 12.452 37.625 10.831 35.317 10.831 C 33.008 10.831 31.393 12.452 31.393 14.754 C 31.393 17.056 33.008 18.677 35.317 18.677 Z M 32.369 14.754 C 32.369 12.992 33.571 11.782 35.317 11.782 C 37.062 11.782 38.264 12.992 38.264 14.754 C 38.264 16.515 37.062 17.727 35.317 17.727 C 33.571 17.727 32.369 16.515 32.369 14.754 Z" fill="var(--token-f82457c5-8438-48a1-bcce-dde3448a0d3a, rgb(253, 251, 245)) /* {&quot;name&quot;:&quot;icon/inverse&quot;} */"/><path d="M 41.794 18.537 L 42.737 18.537 L 42.737 12.615 L 46.932 18.537 L 47.819 18.537 L 47.819 10.972 L 46.888 10.972 L 46.888 16.894 L 42.694 10.972 L 41.794 10.972 Z" fill="var(--token-f82457c5-8438-48a1-bcce-dde3448a0d3a, rgb(253, 251, 245)) /* {&quot;name&quot;:&quot;icon/inverse&quot;} */"/><path d="M 58.731 18.471 C 60.616 18.471 61.731 17.584 61.731 16.093 C 61.731 14.839 60.919 14.104 59.077 13.694 C 58.102 13.477 57.745 13.24 57.745 12.85 C 57.745 12.482 58.069 12.255 58.579 12.255 C 59.186 12.255 59.533 12.569 59.533 13.142 L 61.591 13.142 C 61.591 11.586 60.399 10.581 58.535 10.581 C 56.747 10.581 55.643 11.467 55.643 12.894 C 55.643 14.169 56.476 14.958 58.188 15.282 C 59.109 15.466 59.554 15.747 59.554 16.18 C 59.554 16.557 59.23 16.773 58.698 16.773 C 58.069 16.773 57.701 16.438 57.701 15.855 L 55.588 15.855 C 55.588 17.487 56.758 18.471 58.731 18.471 Z" fill="var(--token-efbc6c56-80fe-4475-9b37-9684d6e92632, rgb(25, 25, 25)) /* {&quot;name&quot;:&quot;icon/default&quot;} */"/><path d="M 64.745 18.308 L 66.923 18.308 L 66.923 12.763 L 69.232 12.763 L 69.232 10.743 L 62.436 10.743 L 62.436 12.763 L 64.745 12.763 Z" fill="var(--token-efbc6c56-80fe-4475-9b37-9684d6e92632, rgb(25, 25, 25)) /* {&quot;name&quot;:&quot;icon/default&quot;} */"/><path d="M 73.597 18.471 C 75.645 18.471 76.914 17.228 76.914 15.195 L 76.914 10.743 L 74.735 10.743 L 74.735 15.056 C 74.735 15.953 74.356 16.428 73.597 16.428 C 72.838 16.428 72.459 15.953 72.459 15.056 L 72.459 10.743 L 70.27 10.743 L 70.27 15.195 C 70.27 17.228 71.548 18.471 73.597 18.471 Z" fill="var(--token-efbc6c56-80fe-4475-9b37-9684d6e92632, rgb(25, 25, 25)) /* {&quot;name&quot;:&quot;icon/default&quot;} */"/><path d="M 78.462 18.308 L 81.682 18.308 C 84.131 18.308 85.755 16.807 85.755 14.525 C 85.755 12.255 84.131 10.743 81.682 10.743 L 78.462 10.743 Z M 80.651 16.353 L 80.651 12.699 L 81.615 12.699 C 82.776 12.699 83.523 13.413 83.523 14.525 C 83.523 15.639 82.776 16.353 81.615 16.353 Z" fill="var(--token-efbc6c56-80fe-4475-9b37-9684d6e92632, rgb(25, 25, 25)) /* {&quot;name&quot;:&quot;icon/default&quot;} */"/><path d="M 86.925 18.308 L 89.113 18.308 L 89.113 10.743 L 86.925 10.743 Z" fill="var(--token-efbc6c56-80fe-4475-9b37-9684d6e92632, rgb(25, 25, 25)) /* {&quot;name&quot;:&quot;icon/default&quot;} */"/><path d="M 94.413 18.471 C 96.829 18.471 98.541 16.838 98.541 14.525 C 98.541 12.213 96.829 10.581 94.413 10.581 C 91.997 10.581 90.283 12.213 90.283 14.525 C 90.283 16.838 91.997 18.471 94.413 18.471 Z M 92.505 14.525 C 92.505 13.39 93.296 12.602 94.413 12.602 C 95.54 12.602 96.32 13.39 96.32 14.525 C 96.32 15.66 95.54 16.449 94.413 16.449 C 93.296 16.449 92.505 15.66 92.505 14.525 Z" fill="var(--token-efbc6c56-80fe-4475-9b37-9684d6e92632, rgb(25, 25, 25)) /* {&quot;name&quot;:&quot;icon/default&quot;} */"/></svg>