<svg xmlns="http://www.w3.org/2000/svg" viewBox="0 0 69 60" id="svg11781321574"><path d="M 2.544 59.137 L 0.884 59.137 L 0.884 52.629 L 2.544 52.629 Z" fill="currentColor"/><path d="M 12.009 59.137 L 10.544 59.137 L 7.544 55.135 L 7.544 59.137 L 5.988 59.137 L 5.988 52.629 L 7.453 52.629 L 10.46 56.645 L 10.46 52.629 L 12.009 52.629 Z" fill="currentColor"/><path d="M 26.919 59.137 L 25.454 59.137 L 25.447 54.911 L 23.885 58.489 L 22.803 58.489 L 21.241 54.911 L 21.241 59.137 L 19.755 59.137 L 19.755 52.621 L 21.575 52.621 L 23.34 56.498 L 25.112 52.621 L 26.919 52.621 Z" fill="currentColor"/><path d="M 33.47 52.572 C 34.478 52.572 35.318 52.889 35.988 53.519 C 36.661 54.146 37 54.931 37 55.872 C 37 56.824 36.661 57.619 35.988 58.26 C 35.313 58.897 34.471 59.213 33.463 59.213 C 32.458 59.213 31.621 58.897 30.951 58.26 C 30.282 57.624 29.947 56.829 29.947 55.872 C 29.947 54.925 30.282 54.139 30.951 53.512 C 31.621 52.886 32.46 52.572 33.47 52.572 Z M 33.484 53.958 C 32.976 53.958 32.542 54.144 32.179 54.515 C 31.82 54.882 31.642 55.34 31.642 55.886 C 31.642 56.429 31.823 56.888 32.186 57.264 C 32.549 57.64 32.981 57.828 33.484 57.828 C 33.986 57.828 34.411 57.64 34.76 57.264 C 35.113 56.888 35.29 56.429 35.29 55.886 C 35.29 55.34 35.113 54.882 34.76 54.515 C 34.411 54.144 33.986 53.958 33.484 53.958 Z" fill="currentColor"/><path d="M 45 53.958 L 43.033 53.958 L 43.033 59.137 L 41.373 59.137 L 41.373 53.958 L 39.427 53.958 L 39.427 52.621 L 45 52.621 Z" fill="currentColor"/><path d="M 49.506 59.137 L 47.846 59.137 L 47.846 52.629 L 49.506 52.629 Z" fill="currentColor"/><path d="M 56.048 52.572 C 57.056 52.572 57.896 52.889 58.566 53.519 C 59.239 54.146 59.578 54.931 59.578 55.872 C 59.578 56.824 59.239 57.619 58.566 58.26 C 57.891 58.897 57.049 59.213 56.041 59.213 C 55.036 59.213 54.199 58.897 53.529 58.26 C 52.86 57.624 52.525 56.829 52.525 55.872 C 52.525 54.925 52.86 54.139 53.529 53.512 C 54.199 52.886 55.038 52.572 56.048 52.572 Z M 56.062 53.958 C 55.554 53.958 55.12 54.144 54.757 54.515 C 54.398 54.882 54.22 55.34 54.22 55.886 C 54.22 56.429 54.401 56.888 54.764 57.264 C 55.127 57.64 55.559 57.828 56.062 57.828 C 56.564 57.828 56.99 57.64 57.338 57.264 C 57.691 56.888 57.869 56.429 57.869 55.886 C 57.869 55.34 57.691 54.882 57.338 54.515 C 56.99 54.144 56.564 53.958 56.062 53.958 Z" fill="currentColor"/><path d="M 68.61 59.137 L 67.145 59.137 L 64.146 55.135 L 64.146 59.137 L 62.59 59.137 L 62.59 52.629 L 64.055 52.629 L 67.062 56.645 L 67.062 52.629 L 68.61 52.629 Z" fill="currentColor"/><path d="M 48.764 41.591 L 14.041 41.591 L 14.041 6.913 L 48.764 6.913 Z M 14.595 41.038 L 48.209 41.038 L 48.209 7.466 L 14.595 7.466 Z" fill="currentColor"/><path d="M 51.903 38.086 L 17.182 38.086 L 17.182 3.408 L 51.903 3.408 Z M 17.734 37.533 L 51.348 37.533 L 51.348 3.961 L 17.734 3.961 Z" fill="currentColor"/><path d="M 55.227 34.877 L 20.506 34.877 L 20.506 0.197 L 55.227 0.197 Z M 21.06 34.324 L 54.674 34.324 L 54.674 0.75 L 21.06 0.75 Z" fill="currentColor"/><path d="M 25.178 22.781 L 32.857 22.781 L 32.857 30.445 L 25.178 30.445 Z" fill="currentColor"/></svg>