<svg xmlns="http://www.w3.org/2000/svg" viewBox="0 0 74 16" id="svg11433201360"><path d="M 12.955 0.212 L 12.955 2.276 L 2.947 2.276 L 2.947 7.124 L 11.131 7.124 L 11.131 9.14 L 2.947 9.14 L 2.947 15.788 L 0.643 15.788 L 0.643 0.212 Z" fill="currentColor"/><path d="M 28.318 0.212 L 22.39 10.58 L 22.39 15.788 L 20.086 15.788 L 20.086 10.58 L 14.158 0.212 L 16.798 0.212 L 21.838 9.308 L 20.734 9.308 L 25.678 0.212 Z" fill="currentColor"/><path d="M 33.064 0.212 L 33.064 13.724 L 42.232 13.724 L 42.232 15.788 L 30.76 15.788 L 30.76 0.212 Z" fill="currentColor"/><path d="M 47.618 0.212 L 47.618 13.724 L 56.786 13.724 L 56.786 15.788 L 45.315 15.788 L 45.315 0.212 Z" fill="currentColor"/><path d="M 61.813 11.924 L 61.813 9.86 L 70.165 9.86 L 70.165 11.924 Z M 58.429 15.788 L 64.789 0.212 L 67.237 0.212 L 73.645 15.788 L 71.149 15.788 L 65.581 1.724 L 66.445 1.724 L 60.901 15.788 Z" fill="currentColor"/></svg>