<svg xmlns="http://www.w3.org/2000/svg" viewBox="0 0 50 65" id="svg10963867134"><path d="M 49.419 32.6 C 49.421 32.595 49.421 32.59 49.419 32.585 C 49.428 32.558 49.431 32.533 49.433 32.504 C 49.431 32.477 49.428 32.451 49.419 32.424 C 49.421 32.419 49.421 32.414 49.419 32.409 C 49.411 32.383 49.399 32.36 49.384 32.338 L 24.94 0.103 L 24.932 0.095 C 24.922 0.083 24.91 0.071 24.898 0.063 C 24.846 0.02 24.789 0 24.723 0 C 24.658 0 24.599 0.02 24.548 0.063 C 24.536 0.071 24.525 0.083 24.514 0.095 L 24.504 0.103 L 0.057 32.333 C 0.04 32.355 0.029 32.378 0.02 32.404 C 0.02 32.409 0.02 32.414 0.02 32.419 C 0.013 32.445 0.008 32.472 0.008 32.499 L 0 32.499 C 0 32.526 0.005 32.553 0.012 32.58 C 0.012 32.585 0.012 32.59 0.012 32.595 C 0.02 32.621 0.032 32.645 0.049 32.665 L 24.486 64.894 C 24.489 64.897 24.491 64.901 24.496 64.904 L 24.521 64.931 L 24.54 64.947 C 24.55 64.955 24.56 64.962 24.572 64.967 L 24.59 64.977 L 24.631 64.992 L 24.647 64.992 C 24.688 65.003 24.728 65.003 24.767 64.992 L 24.784 64.992 L 24.824 64.977 L 24.843 64.967 C 24.854 64.962 24.864 64.955 24.875 64.947 L 24.893 64.931 L 24.92 64.904 C 24.923 64.901 24.927 64.897 24.93 64.894 L 49.367 32.665 C 49.387 32.646 49.406 32.626 49.419 32.6 Z M 24.996 25.707 L 43.652 25.707 L 46.34 29.249 L 24.996 29.249 Z M 24.996 25.142 L 24.996 21.601 L 40.538 21.601 L 43.223 25.142 Z M 24.996 21.036 L 24.996 17.491 L 37.423 17.491 L 40.11 21.035 Z M 24.996 16.927 L 24.996 13.387 L 34.305 13.387 L 36.994 16.927 Z M 24.996 12.82 L 24.996 9.279 L 31.192 9.279 L 33.877 12.822 Z M 24.996 8.713 L 24.996 5.171 L 28.075 5.171 L 30.766 8.714 Z M 24.996 4.605 L 24.996 1.109 L 27.648 4.606 Z M 24.437 32.222 L 0.845 32.222 L 24.437 1.109 Z M 24.996 32.787 L 48.595 32.787 L 24.996 63.901 Z M 24.996 32.222 L 24.996 29.813 L 46.767 29.813 L 48.595 32.222 Z" fill="currentColor"/></svg>