<svg xmlns="http://www.w3.org/2000/svg" viewBox="0 0 60 60" id="svg3670196617"><path d="M 59.723 29.725 C 57.789 29.73 55.873 29.545 53.975 29.17 C 52.078 28.795 50.236 28.238 48.448 27.498 C 46.661 26.758 44.964 25.85 43.358 24.773 C 41.75 23.695 40.264 22.472 38.9 21.1 C 37.53 19.736 36.305 18.25 35.228 16.644 C 34.152 15.036 33.244 13.339 32.503 11.553 C 31.763 9.766 31.206 7.923 30.831 6.025 C 30.456 4.128 30.272 2.211 30.277 0.277 C 30.277 0.202 30.25 0.136 30.195 0.081 C 30.142 0.028 30.077 0 30 0 C 29.923 0 29.859 0.028 29.805 0.081 C 29.75 0.136 29.723 0.202 29.723 0.277 C 29.728 2.211 29.544 4.128 29.169 6.025 C 28.795 7.923 28.237 9.766 27.497 11.553 C 26.756 13.339 25.848 15.036 24.772 16.644 C 23.695 18.25 22.47 19.736 21.1 21.1 C 19.736 22.472 18.25 23.695 16.644 24.773 C 15.036 25.85 13.339 26.758 11.552 27.498 C 9.766 28.238 7.922 28.795 6.025 29.17 C 4.127 29.545 2.211 29.73 0.277 29.725 C 0.2 29.725 0.134 29.752 0.081 29.805 C 0.027 29.859 0 29.925 0 30 C 0 30.077 0.027 30.142 0.081 30.197 C 0.134 30.25 0.2 30.277 0.277 30.277 C 2.211 30.272 4.127 30.456 6.025 30.831 C 7.922 31.206 9.764 31.764 11.552 32.505 C 13.339 33.244 15.036 34.153 16.642 35.23 C 18.25 36.306 19.736 37.53 21.1 38.902 C 22.47 40.266 23.695 41.752 24.772 43.358 C 25.848 44.966 26.756 46.663 27.497 48.448 C 28.237 50.236 28.795 52.078 29.169 53.977 C 29.544 55.873 29.728 57.791 29.723 59.725 C 29.723 59.8 29.75 59.866 29.805 59.92 C 29.859 59.973 29.923 60 30 60 C 30.077 60 30.142 59.973 30.195 59.92 C 30.25 59.866 30.277 59.8 30.277 59.725 C 30.277 43.487 43.486 30.277 59.723 30.277 C 59.8 30.277 59.866 30.25 59.919 30.197 C 59.973 30.142 60 30.077 60 30 C 60 29.925 59.973 29.859 59.919 29.805 C 59.866 29.752 59.8 29.725 59.723 29.725 Z M 30 55.633 C 29.783 54.02 29.434 52.439 28.958 50.884 C 28.481 49.33 27.88 47.825 27.156 46.369 C 26.433 44.914 25.595 43.527 24.645 42.208 C 23.694 40.889 22.642 39.656 21.489 38.509 C 20.344 37.358 19.112 36.306 17.794 35.356 C 16.477 34.406 15.091 33.569 13.636 32.845 C 12.181 32.122 10.677 31.522 9.125 31.045 C 7.572 30.567 5.989 30.219 4.38 30 C 5.991 29.783 7.572 29.434 9.125 28.956 C 10.678 28.48 12.181 27.88 13.637 27.156 C 15.092 26.431 16.478 25.595 17.795 24.644 C 19.114 23.694 20.345 22.642 21.491 21.491 C 22.644 20.345 23.694 19.112 24.645 17.795 C 25.595 16.478 26.431 15.091 27.155 13.636 C 27.88 12.181 28.48 10.678 28.956 9.125 C 29.434 7.572 29.781 5.991 30 4.381 C 30.219 5.991 30.567 7.572 31.044 9.125 C 31.52 10.678 32.122 12.181 32.845 13.636 C 33.569 15.091 34.405 16.478 35.356 17.795 C 36.306 19.112 37.358 20.345 38.509 21.491 C 39.656 22.644 40.888 23.695 42.206 24.645 C 43.525 25.597 44.912 26.434 46.369 27.158 C 47.825 27.881 49.33 28.481 50.884 28.958 C 52.438 29.436 54.02 29.783 55.631 30 C 42.356 31.822 31.82 42.358 30 55.633 Z" fill="currentColor"/></svg>