<svg xmlns="http://www.w3.org/2000/svg" viewBox="0 0 60 59" id="svg3004658893"><path d="M 60 23.272 C 60 10.441 49.52 0 36.64 0 C 35.747 0 34.855 0.051 33.967 0.154 C 33.077 0.255 32.198 0.408 31.326 0.611 C 30.455 0.815 29.6 1.067 28.758 1.368 C 27.916 1.668 27.094 2.017 26.293 2.413 C 25.49 2.807 24.715 3.248 23.964 3.732 C 23.213 4.215 22.492 4.741 21.802 5.308 C 21.112 5.874 20.457 6.478 19.836 7.121 C 19.215 7.763 18.634 8.438 18.092 9.146 C 15.498 10.684 13.285 12.645 11.452 15.031 C 10.583 15.545 9.751 16.11 8.957 16.73 C 8.162 17.35 7.411 18.02 6.704 18.737 C 5.997 19.453 5.339 20.213 4.73 21.015 C 4.122 21.817 3.566 22.654 3.067 23.528 C 2.567 24.402 2.126 25.303 1.744 26.233 C 1.361 27.165 1.04 28.115 0.782 29.087 C 0.522 30.059 0.328 31.043 0.197 32.04 C 0.067 33.037 0.002 34.038 0 35.045 C 0 47.876 10.48 58.315 23.36 58.315 C 24.255 58.315 25.145 58.264 26.035 58.163 C 26.923 58.06 27.802 57.907 28.674 57.705 C 29.545 57.502 30.4 57.25 31.242 56.948 C 32.084 56.647 32.906 56.3 33.707 55.904 C 34.51 55.509 35.285 55.069 36.036 54.585 C 36.787 54.101 37.508 53.576 38.198 53.009 C 38.888 52.442 39.543 51.837 40.164 51.196 C 40.785 50.554 41.366 49.878 41.908 49.169 C 44.5 47.632 46.714 45.671 48.548 43.284 C 49.417 42.772 50.249 42.205 51.043 41.585 C 51.838 40.965 52.589 40.297 53.296 39.579 C 54.003 38.862 54.661 38.102 55.27 37.302 C 55.878 36.499 56.434 35.661 56.933 34.788 C 57.433 33.914 57.874 33.012 58.256 32.082 C 58.639 31.152 58.96 30.201 59.218 29.229 C 59.478 28.257 59.672 27.272 59.803 26.275 C 59.933 25.278 59.998 24.277 60 23.272 Z M 17.206 10.375 C 16.626 11.241 16.107 12.142 15.647 13.078 C 14.664 13.422 13.709 13.828 12.78 14.3 C 14.084 12.8 15.561 11.492 17.206 10.375 Z M 36.634 45.976 C 24.067 45.976 13.842 35.789 13.842 23.269 C 13.842 21.585 14.028 19.922 14.402 18.279 C 14.774 16.635 15.325 15.054 16.054 13.534 C 18.423 12.733 20.859 12.335 23.36 12.338 C 35.925 12.338 46.152 22.523 46.152 35.045 C 46.154 36.728 45.968 38.394 45.595 40.037 C 45.223 41.68 44.674 43.263 43.945 44.783 C 41.577 45.583 39.141 45.981 36.64 45.979 Z M 43.582 45.488 C 42.986 46.63 42.298 47.713 41.517 48.738 C 39.772 49.763 37.921 50.54 35.964 51.071 C 34.009 51.601 32.018 51.865 29.992 51.862 C 17.424 51.862 7.2 41.677 7.2 29.155 C 7.199 27.928 7.297 26.707 7.496 25.495 C 7.694 24.283 7.99 23.095 8.384 21.93 C 8.777 20.766 9.262 19.641 9.839 18.556 C 10.418 17.47 11.079 16.439 11.825 15.461 C 12.934 14.81 14.092 14.257 15.296 13.802 C 13.945 16.814 13.271 19.969 13.272 23.268 C 13.272 36.099 23.753 46.54 36.632 46.54 C 39.005 46.543 41.325 46.193 43.59 45.49 Z M 46.71 35.042 C 46.71 22.21 36.23 11.769 23.351 11.769 C 20.981 11.768 18.666 12.118 16.402 12.821 C 17 11.681 17.688 10.596 18.467 9.572 C 20.213 8.547 22.065 7.769 24.02 7.24 C 25.975 6.709 27.967 6.445 29.992 6.449 C 42.559 6.449 52.784 16.634 52.784 29.154 C 52.786 30.381 52.687 31.602 52.489 32.814 C 52.29 34.028 51.994 35.216 51.602 36.38 C 51.208 37.545 50.723 38.669 50.145 39.755 C 49.568 40.841 48.905 41.872 48.159 42.85 C 47.05 43.501 45.892 44.052 44.688 44.507 C 46.041 41.498 46.718 38.344 46.718 35.045 Z M 23.36 57.75 C 10.792 57.75 0.568 47.563 0.568 35.045 C 0.568 34.121 0.624 33.202 0.737 32.285 C 0.849 31.369 1.018 30.464 1.242 29.568 C 1.466 28.671 1.744 27.792 2.074 26.931 C 2.406 26.068 2.789 25.23 3.224 24.414 C 3.657 23.599 4.139 22.813 4.669 22.056 C 5.199 21.299 5.775 20.578 6.393 19.891 C 7.012 19.204 7.671 18.556 8.369 17.95 C 9.066 17.342 9.8 16.78 10.566 16.261 C 9.284 18.17 8.309 20.221 7.64 22.419 C 6.972 24.615 6.639 26.861 6.642 29.157 C 6.642 41.989 17.12 52.429 30 52.429 C 31.84 52.431 33.652 52.219 35.442 51.791 C 37.23 51.364 38.943 50.734 40.582 49.901 C 40.049 50.515 39.485 51.099 38.889 51.654 C 38.295 52.206 37.671 52.727 37.02 53.214 C 36.368 53.702 35.692 54.152 34.993 54.566 C 34.292 54.982 33.573 55.357 32.831 55.695 C 32.09 56.033 31.334 56.329 30.56 56.586 C 29.787 56.843 29.004 57.058 28.207 57.231 C 27.411 57.404 26.607 57.534 25.797 57.621 C 24.987 57.708 24.175 57.75 23.36 57.75 Z M 42.786 47.939 C 43.368 47.074 43.887 46.172 44.345 45.236 C 45.332 44.893 46.29 44.487 47.22 44.015 C 45.916 45.515 44.439 46.822 42.794 47.939 Z M 49.427 42.054 C 50.709 40.146 51.685 38.093 52.353 35.897 C 53.02 33.699 53.354 31.453 53.352 29.157 C 53.352 16.325 42.873 5.888 29.992 5.888 C 28.154 5.885 26.34 6.096 24.552 6.525 C 22.762 6.952 21.05 7.581 19.412 8.414 C 19.944 7.801 20.508 7.216 21.104 6.662 C 21.7 6.107 22.324 5.587 22.975 5.1 C 23.627 4.612 24.305 4.162 25.004 3.746 C 25.705 3.332 26.426 2.956 27.167 2.618 C 27.909 2.28 28.666 1.983 29.438 1.727 C 30.211 1.47 30.996 1.255 31.793 1.083 C 32.589 0.911 33.393 0.78 34.203 0.695 C 35.013 0.607 35.825 0.565 36.64 0.565 C 49.205 0.565 59.432 10.751 59.432 23.272 C 59.432 24.194 59.376 25.115 59.263 26.031 C 59.151 26.947 58.982 27.853 58.758 28.749 C 58.534 29.644 58.256 30.523 57.926 31.386 C 57.594 32.247 57.211 33.085 56.778 33.901 C 56.343 34.716 55.861 35.503 55.331 36.26 C 54.801 37.017 54.225 37.738 53.607 38.426 C 52.988 39.113 52.329 39.76 51.631 40.367 C 50.934 40.973 50.2 41.535 49.434 42.054 Z" fill="currentColor"/></svg>