<svg xmlns="http://www.w3.org/2000/svg" viewBox="0 0 60 60" id="svg2995212517"><path d="M 30 60.002 C 13.457 60.002 0 46.543 0 30.002 C 0 13.46 13.457 0 30 0 C 46.543 0 60 13.459 60 30.002 C 60 46.544 46.541 60.002 30 60.002 Z M 30 0.589 C 13.784 0.589 0.587 13.785 0.587 30.002 C 0.587 46.219 13.784 59.413 30 59.413 C 46.218 59.413 59.411 46.219 59.411 30.002 C 59.411 13.785 46.218 0.589 30 0.589 Z M 30 53.941 C 16.799 53.941 6.062 43.201 6.062 30.002 C 6.062 16.802 16.799 6.064 30 6.064 C 43.201 6.064 53.939 16.801 53.939 30.002 C 53.939 43.202 43.199 53.941 30 53.941 Z M 30 6.653 C 17.126 6.653 6.651 17.127 6.651 30.002 C 6.651 42.877 17.126 53.352 30 53.352 C 42.876 53.352 53.35 42.876 53.35 30.002 C 53.35 17.129 42.874 6.653 30 6.653 Z M 30 47.877 C 29.416 47.877 28.831 47.849 28.249 47.791 C 27.666 47.733 27.088 47.649 26.513 47.533 C 25.939 47.419 25.371 47.277 24.811 47.108 C 24.25 46.938 23.7 46.741 23.16 46.516 C 22.618 46.293 22.089 46.043 21.572 45.766 C 21.057 45.491 20.555 45.19 20.068 44.865 C 19.582 44.54 19.112 44.191 18.658 43.82 C 18.207 43.449 17.773 43.056 17.358 42.642 C 16.944 42.227 16.552 41.795 16.18 41.342 C 15.809 40.89 15.46 40.42 15.135 39.932 C 14.81 39.446 14.51 38.945 14.234 38.428 C 13.957 37.912 13.707 37.382 13.484 36.842 C 13.259 36.301 13.062 35.751 12.892 35.19 C 12.723 34.629 12.581 34.062 12.467 33.489 C 12.351 32.914 12.267 32.336 12.209 31.753 C 12.151 31.17 12.123 30.586 12.123 30 C 12.123 29.416 12.151 28.831 12.209 28.249 C 12.265 27.666 12.351 27.088 12.465 26.513 C 12.581 25.939 12.721 25.372 12.892 24.811 C 13.062 24.252 13.259 23.7 13.482 23.16 C 13.707 22.619 13.957 22.089 14.234 21.574 C 14.509 21.057 14.81 20.555 15.135 20.069 C 15.46 19.582 15.809 19.113 16.18 18.66 C 16.551 18.207 16.944 17.774 17.358 17.36 C 17.773 16.946 18.205 16.554 18.658 16.182 C 19.11 15.81 19.58 15.462 20.068 15.137 C 20.554 14.812 21.055 14.51 21.572 14.235 C 22.088 13.959 22.618 13.709 23.158 13.485 C 23.699 13.26 24.249 13.063 24.81 12.893 C 25.371 12.724 25.938 12.582 26.511 12.468 C 27.086 12.353 27.664 12.267 28.247 12.21 C 28.83 12.152 29.414 12.124 29.998 12.124 C 30.584 12.124 31.169 12.152 31.751 12.21 C 32.334 12.267 32.912 12.353 33.487 12.467 C 34.061 12.582 34.628 12.723 35.189 12.893 C 35.748 13.063 36.3 13.26 36.84 13.484 C 37.381 13.709 37.911 13.959 38.426 14.235 C 38.943 14.51 39.445 14.812 39.931 15.137 C 40.418 15.462 40.887 15.81 41.34 16.182 C 41.793 16.554 42.226 16.946 42.64 17.36 C 43.054 17.774 43.446 18.207 43.818 18.66 C 44.19 19.113 44.538 19.582 44.863 20.069 C 45.188 20.557 45.49 21.058 45.765 21.574 C 46.041 22.091 46.291 22.619 46.515 23.16 C 46.74 23.702 46.937 24.252 47.107 24.813 C 47.276 25.372 47.418 25.939 47.532 26.514 C 47.646 27.089 47.732 27.667 47.79 28.25 C 47.848 28.833 47.876 29.417 47.876 30.002 C 47.876 30.587 47.846 31.172 47.788 31.753 C 47.73 32.336 47.644 32.914 47.529 33.487 C 47.415 34.062 47.273 34.629 47.102 35.189 C 46.932 35.748 46.733 36.3 46.51 36.84 C 46.285 37.381 46.035 37.909 45.759 38.425 C 45.484 38.94 45.182 39.442 44.857 39.928 C 44.532 40.415 44.184 40.884 43.812 41.337 C 43.442 41.788 43.048 42.223 42.634 42.635 C 42.221 43.049 41.787 43.443 41.335 43.813 C 40.882 44.185 40.414 44.534 39.926 44.859 C 39.44 45.184 38.939 45.485 38.423 45.76 C 37.907 46.037 37.379 46.287 36.839 46.512 C 36.298 46.735 35.747 46.934 35.187 47.104 C 34.628 47.274 34.061 47.416 33.486 47.53 C 32.912 47.646 32.334 47.732 31.751 47.79 C 31.17 47.848 30.586 47.877 30 47.877 Z M 30 12.715 C 29.434 12.715 28.869 12.742 28.306 12.798 C 27.742 12.852 27.183 12.935 26.628 13.046 C 26.072 13.157 25.524 13.295 24.982 13.459 C 24.439 13.623 23.908 13.813 23.385 14.031 C 22.861 14.246 22.35 14.488 21.85 14.756 C 21.35 15.023 20.866 15.313 20.396 15.627 C 19.924 15.943 19.471 16.279 19.032 16.638 C 18.594 16.998 18.176 17.377 17.776 17.777 C 17.374 18.177 16.994 18.597 16.635 19.035 C 16.277 19.472 15.94 19.927 15.626 20.397 C 15.31 20.868 15.02 21.354 14.752 21.852 C 14.485 22.352 14.245 22.863 14.027 23.386 C 13.81 23.91 13.62 24.443 13.456 24.983 C 13.292 25.525 13.154 26.074 13.043 26.63 C 12.934 27.185 12.849 27.744 12.795 28.308 C 12.738 28.87 12.712 29.436 12.712 30.002 C 12.712 30.569 12.738 31.133 12.795 31.697 C 12.849 32.261 12.932 32.82 13.043 33.375 C 13.154 33.929 13.292 34.479 13.456 35.02 C 13.62 35.562 13.81 36.095 14.027 36.618 C 14.243 37.14 14.485 37.653 14.752 38.151 C 15.02 38.651 15.31 39.135 15.624 39.607 C 15.94 40.078 16.276 40.532 16.635 40.97 C 16.994 41.407 17.374 41.826 17.774 42.226 C 18.176 42.627 18.594 43.007 19.032 43.367 C 19.469 43.726 19.924 44.062 20.394 44.376 C 20.865 44.691 21.35 44.982 21.849 45.249 C 22.349 45.516 22.86 45.757 23.383 45.974 C 23.907 46.191 24.439 46.382 24.98 46.546 C 25.522 46.71 26.071 46.848 26.627 46.958 C 27.181 47.068 27.741 47.151 28.305 47.207 C 28.869 47.262 29.433 47.29 29.998 47.29 C 30.566 47.29 31.13 47.262 31.694 47.207 C 32.258 47.151 32.817 47.068 33.372 46.958 C 33.928 46.848 34.476 46.71 35.017 46.546 C 35.559 46.382 36.092 46.191 36.615 45.974 C 37.139 45.757 37.65 45.516 38.148 45.249 C 38.648 44.982 39.132 44.691 39.604 44.377 C 40.074 44.062 40.529 43.726 40.967 43.367 C 41.404 43.007 41.823 42.627 42.223 42.227 C 42.624 41.826 43.004 41.407 43.363 40.97 C 43.723 40.532 44.059 40.078 44.374 39.607 C 44.688 39.135 44.979 38.651 45.246 38.151 C 45.513 37.653 45.754 37.142 45.971 36.618 C 46.188 36.095 46.379 35.562 46.543 35.02 C 46.707 34.479 46.844 33.929 46.955 33.375 C 47.065 32.82 47.149 32.261 47.204 31.697 C 47.26 31.133 47.287 30.569 47.287 30.002 C 47.287 29.436 47.258 28.872 47.202 28.308 C 47.146 27.745 47.063 27.186 46.952 26.631 C 46.841 26.075 46.704 25.528 46.538 24.986 C 46.374 24.444 46.184 23.913 45.966 23.389 C 45.749 22.868 45.507 22.357 45.24 21.857 C 44.973 21.358 44.682 20.872 44.368 20.402 C 44.054 19.932 43.716 19.479 43.357 19.041 C 42.998 18.604 42.618 18.183 42.218 17.783 C 41.818 17.384 41.399 17.004 40.962 16.644 C 40.524 16.285 40.071 15.949 39.599 15.634 C 39.129 15.32 38.645 15.029 38.146 14.762 C 37.646 14.495 37.136 14.252 36.614 14.035 C 36.09 13.818 35.558 13.627 35.017 13.463 C 34.475 13.299 33.926 13.16 33.372 13.049 C 32.817 12.938 32.258 12.856 31.695 12.799 C 31.131 12.743 30.567 12.715 30 12.715 Z M 30 41.815 C 29.614 41.815 29.228 41.796 28.842 41.757 C 28.458 41.72 28.075 41.663 27.695 41.588 C 27.316 41.512 26.941 41.418 26.57 41.306 C 26.2 41.193 25.836 41.063 25.48 40.915 C 25.122 40.768 24.772 40.603 24.432 40.42 C 24.089 40.237 23.758 40.039 23.436 39.824 C 23.114 39.609 22.804 39.379 22.505 39.134 C 22.207 38.887 21.919 38.628 21.646 38.354 C 21.372 38.081 21.113 37.795 20.868 37.495 C 20.622 37.196 20.391 36.886 20.177 36.564 C 19.961 36.243 19.763 35.911 19.58 35.57 C 19.397 35.229 19.233 34.879 19.085 34.522 C 18.937 34.164 18.807 33.8 18.694 33.43 C 18.582 33.059 18.488 32.686 18.413 32.306 C 18.337 31.926 18.28 31.544 18.243 31.159 C 18.204 30.773 18.185 30.387 18.185 30 C 18.185 29.614 18.204 29.228 18.243 28.842 C 18.28 28.458 18.337 28.075 18.412 27.695 C 18.488 27.316 18.582 26.942 18.694 26.572 C 18.807 26.202 18.937 25.838 19.085 25.48 C 19.232 25.122 19.397 24.774 19.58 24.432 C 19.763 24.091 19.961 23.76 20.176 23.438 C 20.391 23.116 20.621 22.805 20.866 22.507 C 21.111 22.207 21.372 21.921 21.646 21.647 C 21.919 21.374 22.205 21.115 22.504 20.869 C 22.804 20.622 23.114 20.393 23.435 20.177 C 23.757 19.963 24.089 19.765 24.43 19.582 C 24.771 19.399 25.121 19.235 25.478 19.087 C 25.836 18.938 26.199 18.808 26.569 18.696 C 26.939 18.583 27.314 18.49 27.694 18.413 C 28.074 18.338 28.456 18.282 28.841 18.244 C 29.227 18.205 29.613 18.187 29.998 18.187 C 30.386 18.187 30.772 18.205 31.158 18.244 C 31.542 18.282 31.925 18.338 32.305 18.413 C 32.683 18.49 33.058 18.583 33.428 18.696 C 33.798 18.808 34.162 18.938 34.52 19.087 C 34.878 19.233 35.226 19.399 35.568 19.582 C 35.909 19.765 36.24 19.963 36.562 20.177 C 36.884 20.393 37.195 20.622 37.493 20.868 C 37.793 21.115 38.079 21.374 38.353 21.647 C 38.626 21.921 38.885 22.207 39.131 22.507 C 39.376 22.805 39.607 23.116 39.821 23.438 C 40.037 23.76 40.235 24.091 40.418 24.432 C 40.601 24.774 40.765 25.122 40.913 25.48 C 41.062 25.838 41.192 26.202 41.304 26.572 C 41.417 26.942 41.51 27.317 41.585 27.697 C 41.662 28.077 41.718 28.459 41.756 28.844 C 41.795 29.23 41.813 29.616 41.813 30.002 C 41.812 30.389 41.793 30.775 41.756 31.159 C 41.717 31.544 41.66 31.926 41.584 32.306 C 41.509 32.684 41.414 33.059 41.301 33.43 C 41.189 33.8 41.059 34.164 40.91 34.52 C 40.762 34.878 40.596 35.226 40.415 35.568 C 40.232 35.909 40.034 36.24 39.818 36.562 C 39.603 36.882 39.373 37.193 39.128 37.492 C 38.882 37.792 38.623 38.078 38.35 38.351 C 38.076 38.625 37.79 38.884 37.49 39.129 C 37.192 39.374 36.881 39.604 36.561 39.82 C 36.239 40.035 35.908 40.234 35.567 40.415 C 35.225 40.598 34.876 40.763 34.519 40.912 C 34.162 41.06 33.798 41.19 33.428 41.302 C 33.058 41.415 32.683 41.51 32.305 41.585 C 31.925 41.662 31.542 41.718 31.158 41.757 C 30.773 41.795 30.387 41.813 30 41.815 Z M 30 18.777 C 29.633 18.777 29.266 18.796 28.9 18.832 C 28.534 18.868 28.17 18.921 27.811 18.993 C 27.45 19.065 27.094 19.154 26.742 19.26 C 26.389 19.368 26.044 19.491 25.705 19.632 C 25.364 19.772 25.033 19.929 24.708 20.102 C 24.385 20.276 24.069 20.465 23.764 20.669 C 23.458 20.872 23.163 21.091 22.879 21.325 C 22.594 21.558 22.322 21.805 22.063 22.064 C 21.802 22.325 21.555 22.597 21.322 22.882 C 21.09 23.164 20.871 23.46 20.666 23.766 C 20.461 24.072 20.274 24.386 20.101 24.711 C 19.927 25.035 19.769 25.367 19.629 25.706 C 19.488 26.046 19.365 26.392 19.258 26.744 C 19.151 27.095 19.061 27.452 18.99 27.813 C 18.918 28.174 18.865 28.536 18.829 28.902 C 18.793 29.267 18.774 29.634 18.774 30.002 C 18.774 30.37 18.793 30.736 18.829 31.103 C 18.865 31.469 18.918 31.831 18.99 32.192 C 19.061 32.553 19.151 32.909 19.257 33.261 C 19.365 33.612 19.488 33.958 19.629 34.298 C 19.769 34.637 19.926 34.97 20.099 35.294 C 20.272 35.618 20.461 35.933 20.666 36.239 C 20.871 36.543 21.09 36.839 21.322 37.123 C 21.555 37.407 21.802 37.679 22.061 37.939 C 22.322 38.2 22.594 38.446 22.879 38.679 C 23.163 38.912 23.457 39.131 23.763 39.335 C 24.069 39.54 24.383 39.728 24.708 39.901 C 25.031 40.074 25.364 40.232 25.703 40.373 C 26.042 40.514 26.389 40.637 26.741 40.743 C 27.092 40.851 27.449 40.94 27.809 41.012 C 28.17 41.084 28.533 41.137 28.898 41.173 C 29.264 41.209 29.631 41.228 29.998 41.228 C 30.367 41.228 30.733 41.209 31.1 41.173 C 31.466 41.137 31.828 41.084 32.189 41.012 C 32.55 40.94 32.906 40.851 33.258 40.743 C 33.609 40.637 33.954 40.514 34.295 40.373 C 34.634 40.232 34.967 40.074 35.29 39.901 C 35.615 39.729 35.929 39.54 36.236 39.335 C 36.54 39.131 36.836 38.912 37.12 38.679 C 37.404 38.446 37.676 38.2 37.937 37.94 C 38.196 37.679 38.443 37.407 38.676 37.123 C 38.909 36.839 39.128 36.545 39.332 36.239 C 39.537 35.933 39.726 35.618 39.898 35.294 C 40.071 34.97 40.229 34.637 40.37 34.298 C 40.51 33.958 40.634 33.612 40.74 33.261 C 40.848 32.909 40.937 32.553 41.009 32.192 C 41.081 31.831 41.134 31.469 41.17 31.103 C 41.206 30.736 41.224 30.37 41.224 30.002 C 41.224 29.634 41.206 29.269 41.17 28.902 C 41.132 28.536 41.079 28.174 41.007 27.813 C 40.934 27.453 40.845 27.097 40.739 26.745 C 40.631 26.394 40.507 26.049 40.367 25.708 C 40.226 25.369 40.068 25.038 39.895 24.713 C 39.721 24.389 39.534 24.075 39.329 23.769 C 39.125 23.464 38.906 23.169 38.673 22.885 C 38.44 22.6 38.193 22.329 37.934 22.069 C 37.673 21.808 37.401 21.563 37.118 21.329 C 36.834 21.096 36.539 20.877 36.234 20.672 C 35.928 20.469 35.614 20.28 35.289 20.107 C 34.965 19.933 34.634 19.776 34.294 19.635 C 33.954 19.494 33.609 19.371 33.258 19.263 C 32.906 19.157 32.55 19.068 32.189 18.994 C 31.83 18.922 31.466 18.869 31.1 18.832 C 30.734 18.796 30.369 18.777 30 18.777 Z M 30 35.753 C 29.623 35.753 29.248 35.717 28.878 35.642 C 28.508 35.568 28.149 35.459 27.8 35.315 C 27.452 35.17 27.119 34.994 26.805 34.784 C 26.492 34.575 26.202 34.336 25.935 34.069 C 25.667 33.801 25.428 33.511 25.219 33.197 C 25.01 32.883 24.832 32.551 24.688 32.203 C 24.542 31.855 24.435 31.494 24.36 31.123 C 24.286 30.753 24.25 30.38 24.25 30.002 C 24.25 29.625 24.286 29.25 24.36 28.88 C 24.435 28.509 24.542 28.15 24.688 27.802 C 24.832 27.453 25.01 27.12 25.219 26.806 C 25.428 26.494 25.667 26.203 25.935 25.936 C 26.202 25.669 26.492 25.43 26.805 25.221 C 27.119 25.011 27.452 24.833 27.8 24.689 C 28.149 24.544 28.508 24.436 28.878 24.361 C 29.248 24.288 29.623 24.252 30 24.252 C 30.378 24.252 30.751 24.288 31.122 24.361 C 31.494 24.436 31.853 24.544 32.201 24.689 C 32.55 24.833 32.881 25.011 33.195 25.221 C 33.509 25.43 33.8 25.669 34.067 25.936 C 34.334 26.203 34.573 26.494 34.783 26.806 C 34.992 27.12 35.168 27.453 35.314 27.802 C 35.458 28.15 35.567 28.509 35.64 28.88 C 35.715 29.25 35.751 29.625 35.751 30.002 C 35.751 30.38 35.714 30.753 35.64 31.123 C 35.565 31.494 35.458 31.853 35.312 32.201 C 35.167 32.551 34.99 32.883 34.781 33.195 C 34.57 33.509 34.333 33.8 34.065 34.067 C 33.798 34.334 33.508 34.572 33.194 34.783 C 32.881 34.992 32.55 35.168 32.2 35.314 C 31.851 35.459 31.492 35.567 31.122 35.642 C 30.751 35.715 30.378 35.753 30 35.753 Z M 30 24.841 C 29.661 24.841 29.327 24.874 28.994 24.939 C 28.661 25.005 28.339 25.103 28.025 25.233 C 27.713 25.363 27.414 25.522 27.133 25.71 C 26.852 25.899 26.591 26.113 26.35 26.352 C 26.111 26.592 25.897 26.853 25.708 27.135 C 25.521 27.416 25.361 27.714 25.231 28.027 C 25.102 28.339 25.003 28.663 24.938 28.995 C 24.872 29.328 24.839 29.663 24.839 30.002 C 24.839 30.341 24.872 30.677 24.938 31.009 C 25.003 31.342 25.102 31.664 25.231 31.978 C 25.361 32.291 25.521 32.589 25.708 32.87 C 25.897 33.151 26.111 33.412 26.35 33.653 C 26.591 33.892 26.852 34.106 27.133 34.294 C 27.414 34.483 27.713 34.642 28.025 34.772 C 28.339 34.901 28.661 34.998 28.994 35.065 C 29.327 35.131 29.661 35.164 30 35.164 C 30.339 35.164 30.675 35.131 31.008 35.065 C 31.341 34.998 31.662 34.901 31.976 34.772 C 32.289 34.642 32.587 34.483 32.869 34.294 C 33.15 34.106 33.411 33.892 33.651 33.653 C 33.89 33.412 34.104 33.151 34.292 32.87 C 34.481 32.589 34.64 32.291 34.77 31.978 C 34.9 31.664 34.997 31.342 35.064 31.009 C 35.129 30.677 35.162 30.341 35.162 30.002 C 35.162 29.663 35.129 29.328 35.062 28.995 C 34.997 28.663 34.898 28.341 34.768 28.028 C 34.639 27.714 34.479 27.417 34.292 27.136 C 34.103 26.853 33.889 26.592 33.65 26.353 C 33.409 26.114 33.15 25.9 32.867 25.711 C 32.586 25.524 32.289 25.364 31.975 25.235 C 31.662 25.105 31.339 25.007 31.008 24.941 C 30.675 24.874 30.339 24.841 30 24.841 Z" fill="currentColor"/></svg>